<?xml version="1.0" encoding="UTF-8" standalone="no"?>
<!-- Created with Inkscape (http://www.inkscape.org/) -->

<svg
   viewBox="0 0 178.07385 159.84778"
   version="1.1"
   id="svg1"
   xmlns="http://www.w3.org/2000/svg"
   xmlns:svg="http://www.w3.org/2000/svg">
  <defs
     id="defs1" />
  <g
     id="layer1"
     transform="translate(-13.229962,-16.151955)">
    <g
       id="g24"
       transform="matrix(1.5020148,0,0,1.5020148,-21.126875,-58.830711)"
       style="display:inline;fill:#55ecdf;fill-opacity:1;stroke:#000000;stroke-opacity:1">
      <path
         style="display:inline;fill:#55ecdf;fill-opacity:1;stroke:#ffffff;stroke-width:0.765;stroke-linecap:round;stroke-dasharray:none;stroke-opacity:1"
         d="m 97.27468,125.67295 c -1.967335,0.15333 -3.997296,-0.77093 -4.038196,-2.98427 -0.32087,-1.76224 -0.887722,-3.93818 -0.215099,-5.52384 1.970366,-0.49198 6.506125,3.92798 8.355815,5.23657 0.24989,0.18289 0.50561,0.3583 0.77181,0.51675"
         id="path57" />
      <path
         style="display:inline;fill:#55ecdf;fill-opacity:1;stroke:#ffffff;stroke-width:0.765;stroke-linecap:round;stroke-dasharray:none;stroke-opacity:1"
         d="m 98.544718,120.24792 c 0.980758,0.25891 6.347022,-0.20092 8.962572,-0.15182 1.54405,0.70353 2.47355,1.5158 3.87449,2.32702 1.56884,1.27841 3.12147,2.84934 3.55596,4.90546 0.74367,1.70704 3.60839,1.86032 2.76308,4.31209 -0.17913,1.73997 -1.56131,2.96093 -2.65541,4.19168 -1.46499,1.04973 -3.43898,-0.2525 -5.06723,0.46262 -1.62185,0.63262 -2.5887,1.73348 -0.91054,2.59066 1.62508,0.52193 3.30806,0.71791 4.96012,1.08473 1.51016,0.63722 3.00349,1.21965 4.585,1.6671 2.30184,0.78796 4.59016,1.62838 6.89289,2.40974 2.20695,0.292 3.08578,0.90087 4.64042,1.03688 1.9103,0.28032 4.20475,0.74985 6.00378,0.25636 1.08236,-0.96745 3.3493,-2.26924 4.71097,-1.49056 0.7089,1.2909 -0.81219,3.84705 -2.42862,4.33946 -1.65446,0.48581 -2.93941,0.74149 -4.61168,1.19141 -1.68287,0.64772 -3.25255,0.30761 -3.46189,0.87543 2.22165,1.468 5.26709,2.2861 8.06392,2.6302 2.07124,0.25483 1.30018,0.0118 2.32139,1.52198 -0.93345,3.02702 -9.65297,0.71516 -14.21261,0.58718 -4.11619,-0.38309 -8.20382,-1.35473 -12.32797,-1.64648 -4.57195,-1.02266 -9.49683,0.44393 -13.74429,-2.03531 -7.72359,-3.10534 -17.316349,-9.437 -25.276506,-11.19623 -7.52919,-1.90637 -20.828966,-7.13771 -27.117556,-9.56141 -2.959598,-1.28376 -5.115068,-2.49925 -8.588999,1.45053 -2.381063,4.70542 -0.969747,10.16203 2.081717,13.91791 3.00749,0.87249 6.528223,6.29833 0.690239,5.98814 -5.832036,-0.82194 -9.01141,-6.63705 -11.18301,-11.4469 -0.570324,-6.86147 -0.421044,-13.8017 -2.003231,-20.55345 -0.399912,-5.44163 -3.959929,-9.90409 -5.335906,-15.02937 -1.441998,-4.86231 0.685489,-10.66476 3.408636,-14.626564 -1.645828,-4.812675 -1.23786,-10.035864 -1.789986,-15.035716 0.403519,-5.48629 0.945032,-12.977672 3.771497,-18.241837 2.752101,-4.56959 7.722541,-6.804905 14.016455,-6.669204 5.121087,0.870895 2.29107,6.758426 -2.005424,4.946598 -6.205337,-0.648754 -8.638843,7.354263 -9.403287,12.690987 0.349595,5.886489 1.663835,12.426341 4.447017,17.907439 4.197027,2.299778 4.548303,0.649481 11.303197,1.759552 6.927698,2.613636 16.278112,9.249963 20.105323,15.550835 3.652495,4.17871 6.828139,8.73029 10.275982,13.02085 2.664756,5.2649 8.106635,6.19684 13.517937,5.46462 l 1.599836,-0.44533"
         id="path56" />
      <path
         style="display:inline;fill:#55ecdf;fill-opacity:1;stroke:#ffffff;stroke-width:0.765;stroke-linecap:round;stroke-dasharray:none;stroke-opacity:1"
         d="m 100.65313,120.27159 c 0.15561,-1.19643 0.97941,-4.03894 2.29447,-4.51648 0.87969,-0.22385 1.21261,0.35282 2.03526,0.84713 0.94555,0.76506 1.32917,1.76141 1.65815,2.87574 0.0927,0.15921 0.21623,0.43155 0.35323,0.55386"
         id="path55" />
      <path
         style="display:inline;fill:#55ecdf;fill-opacity:1;stroke:#fffdfd;stroke-width:0.765;stroke-linecap:round;stroke-dasharray:none;stroke-opacity:1"
         d="m 45.00281,129.4143 c 0.314404,1.03886 0.610989,5.13876 1.145914,6.64131 0.630138,1.57491 0.527538,3.54763 1.984385,4.69508 1.181362,1.33157 2.627129,2.36049 3.914778,3.57272 1.949143,1.19426 3.793082,2.60929 5.870442,3.51491 1.682207,0.26857 3.380318,0.45598 5.083189,0.56394 1.463106,0.25254 3.431077,-1.05358 2.756336,-2.67376 -0.789931,-1.49037 -2.709666,-1.43624 -4.101828,-1.96966 -1.793986,-0.73365 -3.757333,-1.60808 -4.930105,-3.20546 -0.175932,-0.25681 -3.017254,-3.80487 -1.975803,-7.37939"
         id="path54" />
      <path
         style="display:inline;fill:#ffffff;fill-opacity:1;stroke:none;stroke-width:0.765;stroke-linecap:round;stroke-dasharray:none;stroke-opacity:1"
         d="m 117.26649,130.19772 c -0.39924,0.0276 -1.15452,0.0978 -1.3466,0.50271 -0.0681,0.34008 0.39326,0.43967 0.52156,0.70525 0.18102,0.22025 0.39937,0.40099 0.61327,0.58669"
         id="path19" />
      <path
         style="fill:#55ecdf;fill-opacity:1;stroke:#ffffff;stroke-width:0.757677;stroke-linecap:round;stroke-dasharray:none;stroke-opacity:0.998067"
         d="m 107.83033,127.56269 c 1.24274,-0.0377 2.54083,0.0242 3.69648,0.51616 0.36328,0.21488 0.63768,0.54635 0.98762,0.77948"
         id="path18" />
      <path
         style="fill:#55ecdf;fill-opacity:1;stroke:#ffffff;stroke-width:0.671773;stroke-linecap:round;stroke-dasharray:none;stroke-opacity:0.998067"
         d="m 113.17189,132.99192 c -0.57624,0.0231 -1.10366,0.31388 -1.67948,0.35515 -1.94184,0.49472 -6.15877,1.45553 -8.12049,3.27725"
         id="path20" />
      <path
         style="display:inline;fill:#55ecdf;fill-opacity:1;stroke:#ffffff;stroke-width:0.671773;stroke-linecap:round;stroke-dasharray:none;stroke-opacity:0.998067"
         d="m 112.71397,131.74816 c -0.59419,0.005 -1.15755,0.2076 -1.73136,0.27215 -0.85758,0.25053 -1.75378,0.25782 -2.62744,0.4355 -1.09344,0.21261 -2.18252,0.48151 -3.24227,0.82453 -1.27709,0.49466 -2.47851,1.16616 -3.75932,1.65003 -0.17738,0.0914 -0.34364,0.20403 -0.49577,0.33308"
         id="path21" />
      <path
         style="display:inline;fill:#55ecdf;fill-opacity:1;stroke:#ffffff;stroke-width:0.829317;stroke-linecap:round;stroke-dasharray:none;stroke-opacity:0.951031"
         d="m 87.74702,127.35426 c 0,0 3.852744,3.67788 8.214109,6.67427 3.425611,2.35351 6.800461,5.77136 7.735241,6.10788 2.12492,0.76498 5.18225,2.12622 6.03221,2.5512 0.84997,0.42498 10.31724,3.45096 12.44215,4.04593 2.12493,0.59498 3.31934,1.40118 5.552,1.60326"
         transform="matrix(0.92241214,0,0,0.92241214,12.714915,13.382734)"
         id="path31" />
    </g>
  </g>
</svg>
